<?xml version="1.0" encoding="UTF-8" standalone="no"?>
<svg
   xmlns:dc="http://purl.org/dc/elements/1.1/"
   xmlns:cc="http://creativecommons.org/ns#"
   xmlns:rdf="http://www.w3.org/1999/02/22-rdf-syntax-ns#"
   xmlns:svg="http://www.w3.org/2000/svg"
   xmlns="http://www.w3.org/2000/svg"
   xmlns:xlink="http://www.w3.org/1999/xlink"
   height="5.4000001mm"
   width="5.4000001mm"
   id="svg4530"
   version="1.1"
   className="w-full h-full"
   viewBox="0 0 20.40945 20.40945">
  <metadata
     id="metadata4536">
    <rdf:RDF>
      <cc:Work
         rdf:about="">
        <dc:format>image/svg+xml</dc:format>
        <dc:type
           rdf:resource="http://purl.org/dc/dcmitype/StillImage" />
        <dc:title></dc:title>
      </cc:Work>
    </rdf:RDF>
  </metadata>
  <defs
     id="defs4534">
    <linearGradient
       id="linearGradient4674">
      <stop
         id="stop4670"
         offset="0"
         style="stop-color:#ff9a32;stop-opacity:1" />
      <stop
         id="stop4672"
         offset="1"
         style="stop-color:#ffc801;stop-opacity:1" />
    </linearGradient>
    <linearGradient
       gradientUnits="userSpaceOnUse"
       y2="0.079725295"
       x2="10.157849"
       y1="20.453125"
       x1="10.157849"
       id="linearGradient4676"
       xlink:href="#linearGradient4674" />
  </defs>
  <rect
     ry="1.09375"
     y="5.5568427e-07"
     x="0"
     height="20.409449"
     width="20.409449"
     id="rect4668"
     style="opacity:1;vector-effect:none;fill:url(#linearGradient4676);fill-opacity:1;stroke:none;stroke-width:1.51181102;stroke-linecap:square;stroke-linejoin:round;stroke-miterlimit:4;stroke-dasharray:none;stroke-dashoffset:0;stroke-opacity:1" />
  <path
     id="path4621"
     d="M 1.5117188 0.75585938 C 1.4862787 0.75585937 1.4608559 0.75716562 1.4355469 0.75976562 C 1.4106279 0.76248563 1.3858581 0.76638438 1.3613281 0.77148438 C 1.3369651 0.77615437 1.3128485 0.7820625 1.2890625 0.7890625 C 1.2645235 0.7969325 1.2404039 0.80606625 1.2167969 0.81640625 C 1.1935069 0.82568625 1.1706915 0.83611625 1.1484375 0.84765625 C 1.1269405 0.86028625 1.1060815 0.87397187 1.0859375 0.88867188 C 1.0650205 0.90263188 1.0448136 0.91762375 1.0253906 0.93359375 C 1.0056701 0.94956375 0.986766 0.966505 0.96875 0.984375 C 0.9515495 1.002435 0.93525348 1.0213456 0.91992188 1.0410156 C 0.90389628 1.0610756 0.8889029 1.0819356 0.875 1.1035156 C 0.8615802 1.1243756 0.84919543 1.1458887 0.83789062 1.1679688 C 0.82628712 1.1908588 0.81585663 1.2143313 0.80664062 1.2382812 C 0.79762163 1.2619613 0.78979913 1.2860769 0.78320312 1.3105469 C 0.77681912 1.3343669 0.77160412 1.3584825 0.76757812 1.3828125 C 0.76303412 1.4080225 0.7597755 1.4334444 0.7578125 1.4589844 C 0.75654804 1.4765344 0.75589651 1.4941288 0.75585938 1.5117188 L 0.75585938 2.2675781 L 0.75585938 6.8027344 L 2.2675781 6.8027344 L 2.2675781 2.2675781 L 6.8027344 2.2675781 L 6.8027344 0.75585938 L 2.2675781 0.75585938 L 1.5117188 0.75585938 z M 13.605469 0.75585938 L 13.605469 2.2675781 L 18.142578 2.2675781 L 18.142578 6.8027344 L 19.654297 6.8027344 L 19.654297 2.2675781 L 19.654297 1.5117188 C 19.65426 1.4941288 19.653655 1.4765344 19.652344 1.4589844 C 19.650344 1.4334444 19.647178 1.4080225 19.642578 1.3828125 C 19.638578 1.3584825 19.633383 1.3343669 19.626953 1.3105469 C 19.620353 1.2860769 19.612536 1.2619613 19.603516 1.2382812 C 19.594316 1.2143313 19.583866 1.1908588 19.572266 1.1679688 C 19.560956 1.1458887 19.548576 1.1243756 19.535156 1.1035156 C 19.521256 1.0819356 19.506254 1.0610756 19.490234 1.0410156 C 19.474904 1.0213456 19.458606 1.002435 19.441406 0.984375 C 19.423386 0.966505 19.404486 0.94956375 19.384766 0.93359375 C 19.365346 0.91762375 19.345139 0.90263188 19.324219 0.88867188 C 19.304079 0.87397187 19.283219 0.86028625 19.261719 0.84765625 C 19.239469 0.83611625 19.216649 0.82568625 19.193359 0.81640625 C 19.169749 0.80606625 19.145634 0.7969325 19.121094 0.7890625 C 19.097304 0.7820625 19.073198 0.77615437 19.048828 0.77148438 C 19.024298 0.76638438 18.999529 0.76248563 18.974609 0.75976562 C 18.949299 0.75716562 18.923877 0.75585937 18.898438 0.75585938 L 18.142578 0.75585938 L 13.605469 0.75585938 z M 3.7792969 3.7792969 L 3.7792969 5.2910156 L 15.117188 5.2910156 L 15.117188 8.3144531 C 14.2353 8.3162831 14.110404 8.3164362 13.228516 8.3164062 L 12.472656 8.3164062 C 12.447216 8.3164062 12.421794 8.3177125 12.396484 8.3203125 C 12.371564 8.3230325 12.346796 8.3269322 12.322266 8.3320312 C 12.297896 8.3367013 12.27379 8.3426094 12.25 8.3496094 C 12.22546 8.3574794 12.201334 8.3666131 12.177734 8.3769531 C 12.154444 8.3862331 12.131625 8.3966631 12.109375 8.4082031 C 12.087875 8.4208331 12.067015 8.4345188 12.046875 8.4492188 C 12.025955 8.4631788 12.005748 8.4781706 11.986328 8.4941406 C 11.966608 8.5101006 11.947708 8.5270519 11.929688 8.5449219 C 11.912487 8.5629819 11.896189 8.5818925 11.880859 8.6015625 C 11.864839 8.6216225 11.849838 8.6424825 11.835938 8.6640625 C 11.822518 8.6849225 11.810138 8.7064356 11.798828 8.7285156 C 11.787228 8.7514056 11.776778 8.7748781 11.767578 8.7988281 C 11.758578 8.8225081 11.750741 8.8466237 11.744141 8.8710938 C 11.737741 8.8949138 11.732516 8.9190294 11.728516 8.9433594 C 11.723916 8.9685694 11.72075 8.9939913 11.71875 9.0195312 C 11.71745 9.0370812 11.716897 9.0546656 11.716797 9.0722656 L 11.716797 9.828125 L 11.716797 14.363281 L 13.228516 14.363281 L 13.228516 9.828125 C 14.110405 9.828491 14.235299 9.8274704 15.117188 9.8261719 L 15.873047 9.8261719 C 15.898487 9.8261719 15.923909 9.8248656 15.949219 9.8222656 C 15.974139 9.8195656 15.998907 9.8156669 16.023438 9.8105469 C 16.047808 9.8058469 16.071913 9.7999688 16.095703 9.7929688 C 16.120243 9.7850688 16.144359 9.775965 16.167969 9.765625 C 16.191259 9.756325 16.214078 9.745915 16.236328 9.734375 C 16.257828 9.721745 16.278688 9.7080594 16.298828 9.6933594 C 16.319748 9.6793994 16.339955 9.6644075 16.359375 9.6484375 C 16.379095 9.6324775 16.397996 9.6155262 16.416016 9.5976562 C 16.433216 9.5795962 16.449514 9.5606856 16.464844 9.5410156 C 16.480864 9.5209556 16.495866 9.5000956 16.509766 9.4785156 C 16.523186 9.4576556 16.535565 9.4361425 16.546875 9.4140625 C 16.558475 9.3911725 16.568925 9.3677 16.578125 9.34375 C 16.587125 9.32007 16.594963 9.2959544 16.601562 9.2714844 C 16.607962 9.2476644 16.613177 9.2235488 16.617188 9.1992188 C 16.621787 9.1740088 16.624953 9.1485869 16.626953 9.1230469 C 16.628253 9.1054969 16.630759 9.0879125 16.630859 9.0703125 L 16.630859 8.3144531 L 16.630859 5.2910156 L 16.630859 4.5351562 C 16.630859 4.5097163 16.629553 4.4842944 16.626953 4.4589844 C 16.624253 4.4340644 16.620354 4.4092956 16.615234 4.3847656 C 16.610534 4.3603956 16.604656 4.33629 16.597656 4.3125 C 16.589756 4.28796 16.580653 4.2638444 16.570312 4.2402344 C 16.561013 4.2169444 16.550603 4.194125 16.539062 4.171875 C 16.526432 4.150375 16.512747 4.129515 16.498047 4.109375 C 16.484087 4.088455 16.469095 4.0682481 16.453125 4.0488281 C 16.437165 4.0291081 16.420214 4.0102075 16.402344 3.9921875 C 16.384284 3.9749875 16.365373 3.9586894 16.345703 3.9433594 C 16.325643 3.9273394 16.304783 3.9123375 16.283203 3.8984375 C 16.262343 3.8850175 16.24083 3.8726381 16.21875 3.8613281 C 16.19586 3.8497281 16.172388 3.8392781 16.148438 3.8300781 C 16.124758 3.8210581 16.100642 3.8132406 16.076172 3.8066406 C 16.052352 3.8002106 16.028236 3.7950156 16.003906 3.7910156 C 15.978696 3.7864156 15.953274 3.78325 15.927734 3.78125 C 15.910184 3.77994 15.8926 3.7793269 15.875 3.7792969 L 15.119141 3.7792969 L 3.7792969 3.7792969 z M 3.7792969 6.046875 L 3.7792969 8.3144531 L 3.7792969 9.0703125 C 3.7793328 9.0879125 3.7799894 9.1054969 3.78125 9.1230469 C 3.78321 9.1485869 3.7864656 9.1740087 3.7910156 9.1992188 C 3.7950456 9.2235488 3.8002556 9.2476644 3.8066406 9.2714844 C 3.8132406 9.2959544 3.8210591 9.32007 3.8300781 9.34375 C 3.8392981 9.3677 3.8497251 9.3911725 3.8613281 9.4140625 C 3.8726331 9.4361425 3.8850175 9.4576556 3.8984375 9.4785156 C 3.9123405 9.5000956 3.9273334 9.5209556 3.9433594 9.5410156 C 3.9586914 9.5606856 3.9749865 9.5795963 3.9921875 9.5976562 C 4.0102035 9.6155263 4.0291071 9.6324775 4.0488281 9.6484375 C 4.0682511 9.6644075 4.088458 9.6793994 4.109375 9.6933594 C 4.129519 9.7080594 4.150378 9.721745 4.171875 9.734375 C 4.194129 9.745915 4.2169444 9.756345 4.2402344 9.765625 C 4.2638414 9.775965 4.287961 9.7850988 4.3125 9.7929688 C 4.336286 9.7999687 4.3604026 9.8058769 4.3847656 9.8105469 C 4.4092956 9.8156469 4.4340654 9.8195456 4.4589844 9.8222656 C 4.4842934 9.8248656 4.5097163 9.8261719 4.5351562 9.8261719 L 5.2910156 9.8261719 L 7.1816406 9.8261719 L 7.1816406 15.119141 L 7.1816406 15.875 C 7.1816765 15.8926 7.1823332 15.910184 7.1835938 15.927734 C 7.1855538 15.953274 7.1888094 15.978696 7.1933594 16.003906 C 7.1973894 16.028236 7.2025994 16.052352 7.2089844 16.076172 C 7.2155844 16.100642 7.2234029 16.124747 7.2324219 16.148438 C 7.2416419 16.172387 7.2520689 16.19586 7.2636719 16.21875 C 7.2749769 16.24083 7.2873613 16.262343 7.3007812 16.283203 C 7.3146842 16.304783 7.3296771 16.325643 7.3457031 16.345703 C 7.3610351 16.365373 7.3773303 16.384284 7.3945312 16.402344 C 7.4125473 16.420214 7.4314509 16.437165 7.4511719 16.453125 C 7.4705949 16.469095 7.4908018 16.484087 7.5117188 16.498047 C 7.5318628 16.512747 7.5527217 16.526433 7.5742188 16.539062 C 7.5964728 16.550603 7.6192881 16.561032 7.6425781 16.570312 C 7.6661851 16.580652 7.6903048 16.589786 7.7148438 16.597656 C 7.7386298 16.604656 7.7627464 16.610564 7.7871094 16.615234 C 7.8116394 16.620334 7.8364091 16.624233 7.8613281 16.626953 C 7.8866371 16.629553 7.91206 16.630859 7.9375 16.630859 L 8.6933594 16.630859 L 13.228516 16.630859 L 13.228516 15.119141 L 8.6933594 15.119141 L 8.6933594 9.8261719 L 8.6933594 9.0703125 C 8.6933235 9.0527125 8.6926669 9.0351281 8.6914062 9.0175781 C 8.6894462 8.9920381 8.6861906 8.9666163 8.6816406 8.9414062 C 8.6776106 8.9170762 8.6724006 8.8929606 8.6660156 8.8691406 C 8.6594156 8.8446706 8.6515971 8.820555 8.6425781 8.796875 C 8.6333581 8.772925 8.6229311 8.7494525 8.6113281 8.7265625 C 8.6000231 8.7044825 8.5876387 8.6829694 8.5742188 8.6621094 C 8.5603157 8.6405294 8.5453229 8.6196694 8.5292969 8.5996094 C 8.5139649 8.5799394 8.4976698 8.5610287 8.4804688 8.5429688 C 8.4624528 8.5250987 8.4435491 8.5081475 8.4238281 8.4921875 C 8.4044051 8.4762175 8.3841982 8.4612256 8.3632812 8.4472656 C 8.3431372 8.4325656 8.3222783 8.41888 8.3007812 8.40625 C 8.2785272 8.39471 8.2557119 8.38428 8.2324219 8.375 C 8.2088149 8.36466 8.1846953 8.3555263 8.1601562 8.3476562 C 8.1363703 8.3406563 8.1122536 8.3347481 8.0878906 8.3300781 C 8.0633606 8.3249781 8.0385909 8.3210784 8.0136719 8.3183594 C 7.9883629 8.3157594 7.96294 8.3144531 7.9375 8.3144531 L 7.1816406 8.3144531 L 5.2910156 8.3144531 L 5.2910156 6.046875 L 3.7792969 6.046875 z M 6.046875 6.046875 L 6.046875 7.5585938 L 9.4472656 7.5585938 L 9.4472656 14.363281 L 10.958984 14.363281 L 10.958984 7.5585938 L 14.361328 7.5585938 L 14.361328 6.046875 L 6.046875 6.046875 z M 0.75585938 13.605469 L 0.75585938 18.142578 L 0.75585938 18.898438 C 0.75589651 18.916027 0.75654804 18.933622 0.7578125 18.951172 C 0.7597755 18.976712 0.76303412 19.002134 0.76757812 19.027344 C 0.77160412 19.051674 0.77681912 19.075789 0.78320312 19.099609 C 0.78979913 19.124079 0.79762163 19.148195 0.80664062 19.171875 C 0.81585663 19.195825 0.82628712 19.219297 0.83789062 19.242188 C 0.84919543 19.264267 0.8615802 19.285781 0.875 19.306641 C 0.8889029 19.328221 0.90389628 19.349081 0.91992188 19.369141 C 0.93525348 19.388811 0.9515495 19.407721 0.96875 19.425781 C 0.986766 19.443651 1.0056701 19.460593 1.0253906 19.476562 C 1.0448136 19.492532 1.0650205 19.507524 1.0859375 19.521484 C 1.1060815 19.536184 1.1269405 19.54987 1.1484375 19.5625 C 1.1706915 19.57404 1.1935069 19.58447 1.2167969 19.59375 C 1.2404039 19.60409 1.2645235 19.613224 1.2890625 19.621094 C 1.3128485 19.628094 1.3369651 19.634002 1.3613281 19.638672 C 1.3858581 19.643772 1.4106279 19.647671 1.4355469 19.650391 C 1.4608559 19.652991 1.4862787 19.654297 1.5117188 19.654297 L 2.2675781 19.654297 L 6.8027344 19.654297 L 6.8027344 18.142578 L 2.2675781 18.142578 L 2.2675781 13.605469 L 0.75585938 13.605469 z M 18.142578 13.605469 L 18.142578 18.142578 L 13.605469 18.142578 L 13.605469 19.654297 L 18.142578 19.654297 L 18.898438 19.654297 C 18.923877 19.654297 18.949299 19.652991 18.974609 19.650391 C 18.999529 19.647671 19.024298 19.643772 19.048828 19.638672 C 19.073198 19.634002 19.097304 19.628094 19.121094 19.621094 C 19.145634 19.613224 19.169749 19.60409 19.193359 19.59375 C 19.216649 19.58447 19.239469 19.57404 19.261719 19.5625 C 19.283219 19.54987 19.304079 19.536184 19.324219 19.521484 C 19.345139 19.507524 19.365346 19.492532 19.384766 19.476562 C 19.404486 19.460593 19.423386 19.443651 19.441406 19.425781 C 19.458606 19.407721 19.474904 19.388811 19.490234 19.369141 C 19.506254 19.349081 19.521256 19.328221 19.535156 19.306641 C 19.548576 19.285781 19.560956 19.264267 19.572266 19.242188 C 19.583866 19.219297 19.594316 19.195825 19.603516 19.171875 C 19.612536 19.148195 19.620353 19.124079 19.626953 19.099609 C 19.633383 19.075789 19.638578 19.051674 19.642578 19.027344 C 19.647178 19.002134 19.650344 18.976712 19.652344 18.951172 C 19.653655 18.933622 19.65426 18.916027 19.654297 18.898438 L 19.654297 18.142578 L 19.654297 13.605469 L 18.142578 13.605469 z "
     style="opacity:1;vector-effect:none;fill:#011e2e;fill-opacity:1;stroke:none;stroke-width:0.5821836;stroke-linecap:square;stroke-linejoin:round;stroke-miterlimit:4;stroke-dasharray:none;stroke-dashoffset:0;stroke-opacity:1" />
</svg>
