<?xml version="1.0" encoding="UTF-8" standalone="no"?>
<svg
   xmlns:dc="http://purl.org/dc/elements/1.1/"
   xmlns:cc="http://creativecommons.org/ns#"
   xmlns:rdf="http://www.w3.org/1999/02/22-rdf-syntax-ns#"
   xmlns:svg="http://www.w3.org/2000/svg"
   xmlns="http://www.w3.org/2000/svg"
   xmlns:xlink="http://www.w3.org/1999/xlink"
   height="5.4000001mm"
   width="5.4000001mm"
   id="svg4530"
   version="1.1"
   className="w-full h-full"
   viewBox="0 0 20.40945 20.40945">
  <metadata
     id="metadata4536">
    <rdf:RDF>
      <cc:Work
         rdf:about="">
        <dc:format>image/svg+xml</dc:format>
        <dc:type
           rdf:resource="http://purl.org/dc/dcmitype/StillImage" />
        <dc:title></dc:title>
      </cc:Work>
    </rdf:RDF>
  </metadata>
  <defs
     id="defs4534">
    <linearGradient
       id="linearGradient4674">
      <stop
         id="stop4670"
         offset="0"
         style="stop-color:#ff9a32;stop-opacity:1" />
      <stop
         id="stop4672"
         offset="1"
         style="stop-color:#ffc801;stop-opacity:1" />
    </linearGradient>
    <linearGradient
       gradientUnits="userSpaceOnUse"
       y2="0.079725295"
       x2="10.157849"
       y1="20.453125"
       x1="10.157849"
       id="linearGradient4676"
       xlink:href="#linearGradient4674" />
  </defs>
  <rect
     ry="1.09375"
     y="5.5568427e-07"
     x="0"
     height="20.409449"
     width="20.409449"
     id="rect4668"
     style="opacity:1;vector-effect:none;fill:url(#linearGradient4676);fill-opacity:1;stroke:none;stroke-width:1.51181102;stroke-linecap:square;stroke-linejoin:round;stroke-miterlimit:4;stroke-dasharray:none;stroke-dashoffset:0;stroke-opacity:1" />
  <path
     id="path4621"
     d="M 0.84180746,0.84179801 V 3.0445885 H 17.362737 v 4.4055811 c -1.285037,0.00267 -1.467028,0.00288 -2.752065,0.00284 h -1.101396 c -0.03707,0 -0.07411,0.00191 -0.11099,0.0057 -0.03631,0.00397 -0.07241,0.00965 -0.10815,0.017076 -0.03551,0.00681 -0.07064,0.015414 -0.105308,0.025614 -0.03576,0.011468 -0.07091,0.024777 -0.105308,0.039844 -0.03394,0.013522 -0.06719,0.02872 -0.09961,0.045536 -0.03133,0.018403 -0.06172,0.038346 -0.09108,0.059766 -0.03049,0.020342 -0.05993,0.042187 -0.08823,0.065457 -0.02873,0.023256 -0.05627,0.047956 -0.08253,0.073995 -0.02507,0.026316 -0.04882,0.053872 -0.07115,0.082535 -0.02334,0.02923 -0.0452,0.059626 -0.06545,0.091071 -0.01956,0.030397 -0.0376,0.061744 -0.05407,0.093918 -0.0169,0.033354 -0.03213,0.067557 -0.04554,0.1024547 -0.01312,0.034505 -0.02454,0.069646 -0.03416,0.1053019 -0.0094,0.034709 -0.01694,0.06985 -0.02277,0.1053019 -0.0067,0.036734 -0.01136,0.073778 -0.01428,0.1109935 -0.0019,0.025573 -0.0028,0.051195 -0.0029,0.076841 V 9.65581 16.264181 h 2.202792 V 9.6558063 c 1.285038,5.333e-4 1.467026,-9.54e-4 2.752066,-0.00284 h 1.101394 c 0.03707,0 0.07411,-0.00191 0.11099,-0.0057 0.03631,-0.00394 0.07241,-0.00962 0.108149,-0.017076 0.03551,-0.00685 0.07062,-0.015414 0.105309,-0.025614 0.03576,-0.011511 0.0709,-0.024777 0.105307,-0.039844 0.03394,-0.013552 0.06719,-0.02872 0.09961,-0.045536 0.03133,-0.018404 0.06172,-0.038346 0.09107,-0.059767 0.03049,-0.020342 0.05993,-0.042187 0.08823,-0.065458 0.02873,-0.023256 0.05627,-0.047956 0.08254,-0.073995 0.02507,-0.026316 0.04882,-0.053872 0.07115,-0.082534 0.02334,-0.02923 0.0452,-0.059626 0.06545,-0.091071 0.01956,-0.030397 0.03759,-0.061744 0.05407,-0.093918 0.0169,-0.033354 0.03213,-0.067558 0.04554,-0.1024547 0.01312,-0.034505 0.02454,-0.069646 0.03416,-0.1053019 0.0094,-0.034709 0.01691,-0.06985 0.02277,-0.1053019 0.0067,-0.036734 0.01136,-0.073778 0.01428,-0.1109936 0.0019,-0.025573 0.0056,-0.051195 0.0057,-0.07684 V 7.4501696 3.0445885 1.9431931 c 0,-0.037069 -0.0019,-0.074114 -0.0057,-0.1109934 -0.0039,-0.036312 -0.0097,-0.072404 -0.01707,-0.1081478 -0.0069,-0.035511 -0.01542,-0.070636 -0.02561,-0.1053018 -0.01151,-0.035759 -0.02477,-0.070898 -0.03984,-0.105302 -0.01355,-0.033937 -0.02872,-0.067188 -0.04554,-0.099608 -0.0184,-0.031328 -0.03835,-0.061725 -0.05977,-0.091071 -0.02034,-0.030483 -0.04219,-0.059928 -0.06545,-0.088226 -0.02325,-0.028735 -0.04795,-0.056276 -0.07399,-0.082534 -0.02631,-0.025063 -0.05387,-0.048811 -0.08253,-0.071149 -0.02923,-0.023343 -0.05963,-0.045203 -0.09107,-0.065458 -0.0304,-0.0195549 -0.06174,-0.0375929 -0.09392,-0.0540732 -0.03336,-0.0169029 -0.06755,-0.03213 -0.102452,-0.0455357 -0.0345,-0.0131434 -0.06965,-0.0245354 -0.105308,-0.034151 -0.0347,-0.00937 -0.06986,-0.0169393 -0.105307,-0.0227679 C 18.61803,0.8521713 18.581,0.8475523 18.543779,0.844638 18.518209,0.842729 18.492589,0.84184 18.466949,0.841796 h -1.101395 z m 0,3.30418579 V 7.4501696 8.551565 c 5.232e-5,0.025645 0.001009,0.051268 0.002842,0.07684 0.002856,0.037216 0.007607,0.074259 0.0142363,0.1109936 0.005872,0.035453 0.013464,0.070592 0.0227679,0.1053018 0.009617,0.035656 0.0210091,0.070797 0.034151,0.105302 0.0134349,0.034899 0.0286285,0.0691 0.0455357,0.1024547 0.016473,0.032174 0.0345183,0.063521 0.0540731,0.093917 0.020259,0.031445 0.042106,0.061842 0.065458,0.091071 0.02234,0.028662 0.046085,0.056218 0.071149,0.082534 0.026251,0.026039 0.053797,0.05074 0.082534,0.073995 0.028301,0.02327 0.057746,0.045117 0.088225,0.065458 0.029353,0.02142 0.059748,0.041362 0.091071,0.059767 0.032427,0.016816 0.065672,0.032013 0.099609,0.045536 0.034399,0.015067 0.069545,0.028376 0.105302,0.039844 0.034659,0.0102 0.069802,0.018809 0.1053018,0.025614 0.035744,0.00744 0.071837,0.013114 0.1081478,0.017076 0.036879,0.00379 0.073924,0.0057 0.1109934,0.0057 h 1.1013954 2.7549112 v 7.7126069 1.101395 c 5.23e-5,0.02564 0.00101,0.05126 0.00284,0.07683 0.00286,0.03722 0.0076,0.07425 0.014236,0.110991 0.00587,0.03545 0.013464,0.0706 0.022768,0.105308 0.00962,0.03566 0.021009,0.07077 0.034151,0.105308 0.013435,0.03489 0.028628,0.0691 0.045536,0.102451 0.016473,0.03217 0.034518,0.06352 0.054073,0.09392 0.020258,0.03144 0.042105,0.06184 0.065458,0.09107 0.022341,0.02866 0.046085,0.05621 0.071149,0.08253 0.026251,0.02604 0.053797,0.05074 0.082534,0.07399 0.028303,0.02327 0.057746,0.04511 0.088226,0.06545 0.029353,0.02142 0.059748,0.04137 0.091071,0.05977 0.032427,0.01681 0.065672,0.03201 0.099609,0.04554 0.034399,0.01507 0.069545,0.02838 0.105302,0.03984 0.034659,0.0102 0.069802,0.01881 0.1053018,0.02562 0.035744,0.0075 0.071837,0.01312 0.1081478,0.01707 0.036879,0.0038 0.073924,0.0057 0.1109934,0.0057 H 8.0022998 14.610672 V 17.365574 H 8.0022998 V 9.6529603 8.551565 C 8.0022475,8.52592 8.0012898,8.500297 7.9994598,8.474723 7.9965989,8.4375077 7.9918547,8.4004643 7.9852228,8.36373 7.9793524,8.3282773 7.9717588,8.2931376 7.9624548,8.258428 7.9528369,8.222772 7.9414459,8.1876313 7.9283038,8.1531262 7.9148686,8.1182277 7.8996754,8.0840258 7.8827678,8.0506715 7.8662948,8.0184979 7.84825,7.9871505 7.8286943,7.956754 7.8084359,7.9253089 7.7865888,7.8949124 7.7632367,7.8656829 7.7408953,7.8370206 7.7171515,7.8094646 7.6920872,7.7831494 7.6658348,7.7571103 7.6382897,7.7324097 7.6095526,7.7091543 7.5812501,7.685884 7.5518064,7.6640379 7.5213271,7.6436968 7.4919751,7.6222773 7.4615815,7.6023349 7.430257,7.5839313 7.3978303,7.5671154 7.3645842,7.5519181 7.3306475,7.5383953 7.2962483,7.5233285 7.2611026,7.510019 7.225346,7.4985512 7.1906867,7.4883513 7.155544,7.479742 7.1200441,7.4729377 c -0.035744,-0.00744 -0.071837,-0.013114 -0.1081477,-0.017076 -0.036879,-0.00379 -0.073924,-0.0057 -0.1109935,-0.0057 H 5.7995092 3.044598 V 4.1459838 Z m 3.30418584,0 V 6.3487744 H 9.100849 v 9.9154036 h 2.20279 V 6.3487744 h 4.957702 V 4.1459838 Z"
     style="opacity:1;vector-effect:none;fill:#011e2e;fill-opacity:1;stroke:none;stroke-width:0.84832484;stroke-linecap:square;stroke-linejoin:round;stroke-miterlimit:4;stroke-dasharray:none;stroke-dashoffset:0;stroke-opacity:1" />
</svg>
